<mxfile host="app.diagrams.net" modified="2024-01-25T16:01:06.092Z" agent="Mozilla/5.0 (Windows NT 10.0; Win64; x64) AppleWebKit/537.36 (KHTML, like Gecko) Chrome/120.0.0.0 Safari/537.36" etag="pI1htbr8YfgZn77nCD7I" version="23.0.0" type="github">
  <diagram name="PÃ¡gina-1" id="CxKob4ly8vIv8NwVZzbY">
    <mxGraphModel dx="1382" dy="735" grid="1" gridSize="10" guides="1" tooltips="1" connect="1" arrows="1" fold="1" page="1" pageScale="1" pageWidth="1100" pageHeight="1100" math="0" shadow="0">
      <root>
        <mxCell id="0" />
        <mxCell id="1" parent="0" />
      </root>
    </mxGraphModel>
  </diagram>
</mxfile>
